<!DOCTYPE svg PUBLIC "-//W3C//DTD SVG 1.1//EN" "http://www.w3.org/Graphics/SVG/1.1/DTD/svg11.dtd">
<!-- Uploaded to: SVG Repo, www.svgrepo.com, Transformed by: SVG Repo Mixer Tools -->
<svg fill="#fff9c4" height="800px" width="800px" version="1.1" id="Layer_1" xmlns="http://www.w3.org/2000/svg" xmlns:xlink="http://www.w3.org/1999/xlink" viewBox="0 0 512.001 512.001" xml:space="preserve" stroke="#fff9c4">
<g id="SVGRepo_bgCarrier" stroke-width="0"/>
<g id="SVGRepo_tracerCarrier" stroke-linecap="round" stroke-linejoin="round"/>
<g id="SVGRepo_iconCarrier"> <g> <g> <path d="M428.094,277.597H151.192h-0.006H83.907c-10.445,0-18.335,9.504-16.402,19.777l37.831,201.024 c1.484,7.889,8.374,13.604,16.402,13.604c12.722,0,255.954,0,268.525,0c8.028,0,14.918-5.715,16.402-13.604l37.831-201.024 C446.427,287.109,438.547,277.597,428.094,277.597z M156.033,478.621v-0.001l-19.485-167.642h33.604l19.486,167.644H156.033z M272.691,478.621h-33.38v-0.001V310.977h33.38V478.621z M355.969,478.62h-33.604l19.486-167.643h33.604L355.969,478.62z"/> </g> </g> <g> <g> <path d="M346.01,112.02c-9.184-4.314-18.808-7.562-28.704-9.691c-7.759-12.287-17.831-22.635-29.476-30.603 c6.9-7.621,11.109-17.722,11.109-28.787C298.939,19.263,279.677,0,256.001,0c-23.676,0-42.938,19.263-42.938,42.938 c0,3.959,0.55,7.789,1.557,11.43c-51.3,6.849-91.002,50.888-91.002,104.032c0,1.029,0.017,2.07,0.05,3.117 C101.934,178.775,89.1,205.171,89.1,233.089c0,9.219,7.473,16.691,16.69,16.691h300.422c9.217,0,16.69-7.473,16.69-16.69 C422.903,181.484,392.72,133.961,346.01,112.02z"/> </g> </g> </g>
</svg>